<svg xmlns="http://www.w3.org/2000/svg" viewBox="0 0 48 48"><defs><style>.cls-1,.cls-2{fill:none;}.cls-2{stroke:#000;stroke-width:4px;}.cls-3{fill-rule:evenodd;}</style></defs><title>github</title><g id="Layer_2" data-name="Layer 2"><g id="github"><rect class="cls-1" x="2" y="2" width="44" height="44"/><circle class="cls-2" cx="24" cy="24" r="22"/><path class="cls-3" d="M12,24.3A12.29,12.29,0,0,0,20.21,36c.6.11.82-.27.82-.59s0-1.07,0-2.1c-3.34.75-4-1.65-4-1.65a3.26,3.26,0,0,0-1.34-1.8c-1.08-.76.09-.74.09-.74a2.53,2.53,0,0,1,1.84,1.26,2.52,2.52,0,0,0,3.49,1,2.68,2.68,0,0,1,.76-1.65c-2.67-.31-5.47-1.36-5.47-6.08a4.82,4.82,0,0,1,1.24-3.3,4.52,4.52,0,0,1,.12-3.26s1-.33,3.3,1.26A11.08,11.08,0,0,1,24,18a11.21,11.21,0,0,1,3,.41c2.29-1.59,3.29-1.26,3.29-1.26a4.52,4.52,0,0,1,.12,3.26,4.81,4.81,0,0,1,1.23,3.3c0,4.73-2.8,5.77-5.47,6.07A3,3,0,0,1,27,32c0,1.65,0,3,0,3.38s.21.71.82.59A12.29,12.29,0,0,0,36,24.3,12.15,12.15,0,0,0,24,12,12.15,12.15,0,0,0,12,24.3Z"/></g></g></svg>