<svg xmlns="http://www.w3.org/2000/svg" viewBox="0 0 48 48"><defs><style>.cls-1,.cls-2{fill:none;}.cls-2{stroke:#000;stroke-width:4px;}.cls-3{fill-rule:evenodd;}</style></defs><title>habr</title><g id="Layer_2" data-name="Layer 2"><g id="habr"><rect class="cls-1" x="2" y="2" width="44" height="44"/><circle class="cls-2" cx="24" cy="24" r="22"/><path class="cls-3" d="M29.74,26.85l.32.12a1.56,1.56,0,0,0,.1-.47h-.45l0,.36ZM24.85,14.49a9.77,9.77,0,0,0,1.91.32,3.76,3.76,0,0,0-4.2-1.32,5.68,5.68,0,0,1,2.29,1Zm2.56.2a1.57,1.57,0,0,0,.58-.54,4.72,4.72,0,0,0-1.31-.6l-.13.15a4,4,0,0,1,.86,1Zm.84-1a4,4,0,0,0,.27-.67,3.17,3.17,0,0,1-.21.71,4,4,0,0,1,.73.66,2.39,2.39,0,0,0,.74-1.49c0-.89-.65-1-.65-1a.09.09,0,0,1-.09-.11.1.1,0,0,1,.11-.09A1,1,0,0,1,30,12.92a2.58,2.58,0,0,1-.82,1.64,1.93,1.93,0,0,1,.19.27L30.51,14A3.43,3.43,0,0,0,31.12,12a.11.11,0,0,1,.1-.11.12.12,0,0,1,.11.1,3.78,3.78,0,0,1-.4,1.65l3.76-2.77-5,4.58a2.42,2.42,0,0,1,.11,1l.06,0a16.93,16.93,0,0,1,2.59-1.36s-.94.8-2,1.59l.75.35a6.73,6.73,0,0,1,1.18-.54,2.76,2.76,0,0,1,.63-.6.08.08,0,0,1,.09.13,3,3,0,0,0-.44.39,2.79,2.79,0,0,1,.4-.07,1.31,1.31,0,0,1,.66.07A2.4,2.4,0,0,0,34,16c.4-.9-.27-.51-.27-.5a.08.08,0,0,1-.11,0,.07.07,0,0,1,0-.11s1.11-.64.5.72a3.32,3.32,0,0,1-.33.53.9.9,0,0,1,.37.6.12.12,0,0,1-.09.11.09.09,0,0,1-.11-.09.66.66,0,0,0-.31-.46,6.06,6.06,0,0,1-1.36,1.1A6.36,6.36,0,0,1,34,19.49c.67-.57,1.27-.72,1.45.28h0v.06l.15-.21a1.55,1.55,0,0,1,.36-.39l0-.09a.08.08,0,0,1,.1-.06.12.12,0,0,1,0,.05c.49-.15.79.54.79.55s0,.09,0,.1a.08.08,0,0,1-.11,0s-.26-.62-.7-.38a6.4,6.4,0,0,1-.55,1.12,5.76,5.76,0,0,1-.25,2.24l0,0a1.71,1.71,0,0,1-.13.23,3.65,3.65,0,0,1-2.85,2.13,3,3,0,0,1,0,1l1.76,0c1,0,1.89-.1,2.57-.19a2.09,2.09,0,0,0,.82-.23c-.13,0-.8,0-.36-.29a.67.67,0,0,1,.6-.08.39.39,0,0,1,.22.25.36.36,0,0,1-.1.34,1.82,1.82,0,0,1-1.12.42c-.7.09-1.63.15-2.62.19l-1.87,0a3.25,3.25,0,0,1-.47,1A13.59,13.59,0,0,0,35,27.9a15.92,15.92,0,0,0,5-.62,11.93,11.93,0,0,1-4.5,1.14,1,1,0,0,1-1.08.68A6.16,6.16,0,0,1,32,28.24a3.77,3.77,0,0,1,.56,1.7.12.12,0,0,1-.09.11.1.1,0,0,1-.11-.1A3.17,3.17,0,0,0,31.49,28l-.17,0a3.44,3.44,0,0,1-.78.55l2.38,2.89-.21.19-2.43-2.78-.17.16a5.9,5.9,0,0,1-.88,1.29,2.27,2.27,0,0,1,1.3.82,1.24,1.24,0,0,1-.2,1.72l-.07-.07a1.15,1.15,0,0,0,.11-1.52,2,2,0,0,0-1.3-.78,7.23,7.23,0,0,1-.69.64,5.52,5.52,0,0,1,.54,1,2.6,2.6,0,0,1,.16.89c0,1.06-1,1.41-1.94,1.38a2.78,2.78,0,0,1-.79-.13,7.65,7.65,0,0,1,.14,2.17,2.61,2.61,0,0,1-2.72,2.73,2.83,2.83,0,0,0,2.51-2.75,6.17,6.17,0,0,0-.19-2.23,5.72,5.72,0,0,1-1.22-.59,1,1,0,0,1-.91.49,1,1,0,0,1-.3,0,.86.86,0,0,1-.74-.18,2.49,2.49,0,0,1-.53-.49c-.39.6-.81,1.2-1.23,1.79a25.54,25.54,0,0,1-.38,3.59c-.3,1.48-.56,2.54-1.36,2.24.47.09.82-.8,1.07-2.05a25.36,25.36,0,0,0,.38-3.38c-.61.84-1.23,1.65-1.85,2.37a4.17,4.17,0,0,1-1.53,1.29,31.37,31.37,0,0,0,3.41-4.11c0-.6.05-1.2.07-1.79a41.45,41.45,0,0,1-3.31,4c-4,3.78-1.26-1.21-1.08-1,0,0-1.72,3.32.86.68A47.84,47.84,0,0,0,21,32.75v-.12c-.26-.06-.54-.13-.82-.22l-.33.38a5.78,5.78,0,0,1-1.15,2.37.1.1,0,1,1-.15-.13,5.75,5.75,0,0,0,1-1.92l-.31.33c-1.06,1.5-1.48,1-1.63.83a.1.1,0,0,1,0-.14.09.09,0,0,1,.14,0s.26.32,1.34-.84l.55-.61a3.06,3.06,0,0,0,.06-.45l-.1,0a2.46,2.46,0,0,1-1.58.35l-.27,0a1.72,1.72,0,0,1-.79.62,2.05,2.05,0,0,1-1.13.08,2.19,2.19,0,0,1-1.07-.59,2.61,2.61,0,0,1-.71-1.55h0a2.43,2.43,0,0,1,1.13-2.53A5.15,5.15,0,0,1,15,28l-.34-.28-.06,0a.66.66,0,0,1,0-.09,3.58,3.58,0,0,1-.29-.27h0v0a3.76,3.76,0,0,1-1.14-1.72,2.35,2.35,0,0,1,.79-2.16l0,0h0a4.24,4.24,0,0,1,.46-.41,4,4,0,0,1,.34-1.16,9.72,9.72,0,0,1-.08-1.43q0-.35.06-.69a3.71,3.71,0,0,0-.58.21,2.38,2.38,0,0,0-.6.37,1.42,1.42,0,0,0-.52.83s0,.1,0,.14l.29.07c.46.14.9.42,1,.76a.64.64,0,0,1,0,.5.43.43,0,0,1-.23.21.56.56,0,0,1-.32,0h0a1.07,1.07,0,0,1-.58-.36c-.28,0-1.13,0-1.1-.75a.45.45,0,0,1,.25-.39h0a.9.9,0,0,1,.42-.09,1.13,1.13,0,0,1,0-.18,1.71,1.71,0,0,1,.62-1,2.73,2.73,0,0,1,.68-.42,3.45,3.45,0,0,1,.77-.25,4.9,4.9,0,0,1,1.06-2.26A10,10,0,0,0,14,15.8a3.83,3.83,0,0,1,2.22.93,3.2,3.2,0,0,1,1.23-.7,2.82,2.82,0,0,1,.41-.23,7.11,7.11,0,0,0-2.66-2.15,5.11,5.11,0,0,1,3.24,1.92l.05,0h0l0,0a4.64,4.64,0,0,1,.32-.36,8.9,8.9,0,0,0-2.35-2.22,5.11,5.11,0,0,1,2.8,1.78,7.59,7.59,0,0,1,5.19-2A8.86,8.86,0,0,1,26.8,13c.49-.65,1.16-1.71.89-2.28a.91.91,0,0,0-.86-.55,2.82,2.82,0,0,0-1.1.31,3.31,3.31,0,0,0-.95.66c-.3.3-.37.55-.31.74a.38.38,0,0,0,.14.21.68.68,0,0,0,.26.12c.92.16.47-1,.24-.55a.14.14,0,0,1-.18.08c-.76-.22,1.39-.81.66.34a.72.72,0,0,1-.75.33.75.75,0,0,1-.35-.16.66.66,0,0,1-.22-.32,1,1,0,0,1,.37-.93h0a3.87,3.87,0,0,1,1-.71A3.07,3.07,0,0,1,26.83,10a1.27,1.27,0,0,1,1,.32h0a1.21,1.21,0,0,1,.17.25c.3.64-.39,1.79-.93,2.53a5.22,5.22,0,0,1,1.23.6Zm-.19.5h0a2.16,2.16,0,0,1-.56.63l.11.21a4.66,4.66,0,0,1,.66.35l.27.18.42-.39a2.87,2.87,0,0,0-.9-1Zm-2,.7c-.31-.05-.62-.11-.91-.18a3.07,3.07,0,0,1,.31.32s.4-.12.6-.14Zm1.15,15.68h.06l0,0,0,0Zm.26,0h.12l-.09-.15-.1.06a.86.86,0,0,0,.07.1Zm.3,0h0l-.17-.22h0l.14.22Zm.2-.05a1.68,1.68,0,0,0,.56-.26l.3-.24a3.6,3.6,0,0,0,.28-.4l-.25.08-.09,0,0,0a2.25,2.25,0,0,1-.95.51l.19.25Zm-.17.45h-.06l.05.08,0,0,0-.07Zm-.24,0a4.28,4.28,0,0,1-1.34-.11,4.09,4.09,0,0,1-1.06-.06l-1,.23a2.37,2.37,0,0,0,3.23.3l.29-.2-.1-.16Zm-13-4.3,0-.1a.69.69,0,0,1,.19-.28c-.11-.36-.21-.74-.29-1.14a6.69,6.69,0,0,1-.14-.94,4.09,4.09,0,0,0,.09,2.21l.12.25Zm.39.1a1.18,1.18,0,0,0,0,.42,3.23,3.23,0,0,0,.37.37l-.18-.39h0A1.07,1.07,0,0,1,15,27l-.09-.24ZM20,17.15a.19.19,0,0,0,.12.09.57.57,0,0,0,.44-.07s0,.29-.25.32a.66.66,0,0,1-.31,0,1.37,1.37,0,0,0,0,.23l.56,0,.09-.65a5.14,5.14,0,0,0-.58-.27,1.2,1.2,0,0,0-.11.41Zm-1.39.37a5.85,5.85,0,0,1-.12-1.14h0a2.8,2.8,0,0,0-.55,1.92l.15-.08a4.24,4.24,0,0,1,.87-.34,2.25,2.25,0,0,1-.12-1.41c0,.07-.09.16-.13.25a2,2,0,0,0-.08.8ZM20.11,16c.11-.13.26-.3.42-.46a2.44,2.44,0,0,0-1,.2l.22.08a3.26,3.26,0,0,1,.38.18Zm.71-.18q-.21.21-.36.39l.32.23c0-.2,0-.39,0-.56V15.8Zm6.24-.49a2.5,2.5,0,0,0-.4,0,4.17,4.17,0,0,1,.47.19l-.07-.16Zm-.18,1.59a3.42,3.42,0,0,0,0-.72,6.14,6.14,0,0,0-.82-.06,3.94,3.94,0,0,1,.27,1c.16-.07.34-.15.52-.25Zm1.44,12.87H28.2l-.12.12.24-.13Zm1-1.21a1.91,1.91,0,0,0,.35-.29,3.28,3.28,0,0,0,.12-.62l-.06,0c-.08.16-.2.38-.37.65a1.35,1.35,0,0,1,0,.28Zm-4.77,3.9a4.16,4.16,0,0,1-.14.52l.29.2a2.22,2.22,0,0,0,.11-.72Zm-.23.77a2,2,0,0,1-.33.53.67.67,0,0,0,.6-.35l-.27-.18Zm-2.11-.1a2.9,2.9,0,0,1-.2-.33l-.65-.09-.16.22c0,.57,0,1.15-.05,1.74.36-.51.72-1,1.06-1.54Zm-.36-.68-.06-.17-.13,0-.08.11.27,0Zm-2.07-.89a2.6,2.6,0,0,1-.28.24l0,0a1.52,1.52,0,0,0,.25-.26Zm-1-.23a.81.81,0,0,0,.48-.27,1.84,1.84,0,0,0,.19-.25,6,6,0,0,1-1.05-.63l-.42.5c.29.25.56.46.8.65Zm-1.31,0-.07.09A5.72,5.72,0,0,1,17,32a3.17,3.17,0,0,0,1.07.27,2.26,2.26,0,0,0,1.21-.2l-.1-.06h0a5.08,5.08,0,0,1-1.63-.66Zm-3.68-5.8a5.76,5.76,0,0,1,.16-1.6,2.74,2.74,0,0,0-.18,1.39c0,.07,0,.14,0,.21Zm9.53-10.9a2.56,2.56,0,0,0-1.7.54l.17.07a2.91,2.91,0,0,1,.74.5,4.28,4.28,0,0,1,1.58-.62,4.07,4.07,0,0,0-.79-.49Zm-2,.24a3.55,3.55,0,0,1,1.05-.54,5.09,5.09,0,0,0-1.14-.1c0,.17.06.39.09.64Zm11.83,4.62a.87.87,0,0,0-.5.16,3.23,3.23,0,0,1,.34.81c.15-.19.31-.36.46-.52a3.52,3.52,0,0,0-.3-.45Zm-.92.66a5.39,5.39,0,0,0-.4,1.51v.22c0,.05,0,.1,0,.15.18-.26.41-.59.67-.94a2.68,2.68,0,0,0-.26-.94Zm-.57.41a2.88,2.88,0,0,1,.34-.8,5.11,5.11,0,0,0-2.26-1.66c0,.09.07.18.1.27a4.3,4.3,0,0,1,1.82,2.19Zm.77-1.24a1.12,1.12,0,0,1,.4-.19,8.92,8.92,0,0,0-3.26-2,2,2,0,0,0-.05.24,6.47,6.47,0,0,1,2.91,2Zm1.56,4.06a1.51,1.51,0,0,0,1-.77h0a5.25,5.25,0,0,0,.24-1.78,5,5,0,0,1-.57.68l-.07.16a2.3,2.3,0,0,1-.59,1.7Zm.53.13a2.18,2.18,0,0,1-1,.26,4.19,4.19,0,0,1-1.51.56v0a.37.37,0,0,0,.05.11,2.38,2.38,0,0,0,1.68-.2,3.85,3.85,0,0,0,.72-.69l.06-.07ZM31,25.63a1.15,1.15,0,0,0,.69-.77,3,3,0,0,0-.17-.36l-.1.08A3,3,0,0,1,31,25.63Zm.77-2.16q0-.2-.09-.36a3.55,3.55,0,0,1-.21.44l.12.1a1.53,1.53,0,0,0,.18-.18Zm.11-.75a3.81,3.81,0,0,1,.14.44,3.88,3.88,0,0,0,.3-.48l-.44,0Zm-.08,2.66a1.35,1.35,0,0,1-1,.63.28.28,0,0,1,0,.09h.93v0a2.92,2.92,0,0,0,.05-.7Zm1.32-.73a2.74,2.74,0,0,1-.87,0,1.55,1.55,0,0,1,.07.23,3,3,0,0,0,.8-.21ZM28,31.37a.16.16,0,0,1,.05.14c0,.08,0,.09-.09,0a.28.28,0,0,1-.09-.07l-.31.21a4.55,4.55,0,0,1-1.95.72A5.07,5.07,0,0,1,26.28,34a3.24,3.24,0,0,0,.85.15c.86,0,1.75-.06,1.78-1.13a2.25,2.25,0,0,0-.14-.82,4.59,4.59,0,0,0-.52-1l-.25.19Zm-2.71,1.05-.17,0a2.64,2.64,0,0,1-.14.9,6.53,6.53,0,0,0,1,.52,5.67,5.67,0,0,0-.71-1.44Zm-4-.1-.07-.08v.11h0l0,0Zm1-.88a1.17,1.17,0,0,0,.62.22.67.67,0,0,0,.43-.25l.18-.27c-.37.07-.68.13-.87.15l-.28,0-.08.12Zm-3.18-2a5.23,5.23,0,0,0,.58.52,1.91,1.91,0,0,0,.53-.79l-.39-.48-.72.75Zm1.2.81a.79.79,0,0,0,.68-.17c0-.35,0-.67,0-.95l-.13.08a2.59,2.59,0,0,1-.54,1Zm.92-.38a2.34,2.34,0,0,0,.35-.42L21.25,29h0l0,.88Zm.45.69c.14,0,.48.1.82.15.16-.21.31-.42.45-.62a4.7,4.7,0,0,1-.65-.35l-.36.49-.26.33Zm1.11.19.42,0,.12,0,.3-.09.3-.16,0-.07-.22-.1a3.09,3.09,0,0,1-.57-.16l-.39.58ZM19.49,18.9l.11.86-.17.16L19,19.8l-.49-.11a2.7,2.7,0,0,1,.62-.59,2.9,2.9,0,0,1,.33-.2ZM23.43,17c.32,0,.84-.08,1.43-.11h.55a4.23,4.23,0,0,0-.35-.76,4.87,4.87,0,0,0-1.82.45,3.15,3.15,0,0,1,.19.43Zm2,0h-.6l-.91.06c.64,0,1.16.16,1.58.18,0-.07,0-.16-.07-.25Zm-10.7,6.75a.32.32,0,0,1-.1.38,5,5,0,0,0,.12.89q.12.54.27,1A2.07,2.07,0,0,1,15.61,25a11.37,11.37,0,0,1-.46-1.24c-.42-.05-.38,0-.38,0Zm-.08-.55.3,0s0-.11-.05-.17l-.25.17v0Zm1,0c.19,0,.4.07.64.13a3.53,3.53,0,0,1,0-1.37,2,2,0,0,1,.72-1.18,1.87,1.87,0,0,1-.08-.28,3.48,3.48,0,0,0-1.26,2.7Zm1.07.25.25.07a2.63,2.63,0,0,1,.32-1.44,2,2,0,0,1,.24-.37,3.85,3.85,0,0,1,0-.81l-.12.07a1.54,1.54,0,0,0-.76,1.08,3.39,3.39,0,0,0,.05,1.4Zm.31.73-.11,0,0,.05.09,0Zm-.58-.18L16.33,24l-.58-.14c0,.09,0,.19,0,.28s.14.36.21.52a2.75,2.75,0,0,1,.62-.3l-.1-.31Zm3.38,8.23v.09l.06-.07-.05,0ZM35.79,19.6l-.08.11-.24.37s0,.08,0,.13a5.59,5.59,0,0,0,.3-.61Zm-.52.83c-.1.18-.2.36-.29.54.11-.14.21-.28.3-.41v-.13Zm-.64.89c.17-.36.38-.77.61-1.17,0-.19-.05-.31-.05-.33h0c-.13-.69-.57-.58-1.09-.13a4.29,4.29,0,0,1,.54,1.64Zm-18,6.92a3,3,0,0,1,.86-.85,6.75,6.75,0,0,1-1.12-1.14,1.78,1.78,0,0,0-.43,1.3,3.37,3.37,0,0,0,.69.69Zm1-.68a3.05,3.05,0,0,0-.81.79,3.71,3.71,0,0,0,.56.3l.08-.06h0c0-.06,0-.18.05-.37a5.23,5.23,0,0,1,.12-.66Zm3.87-11.85a1.09,1.09,0,0,1,0,.18c0,.25,0,.55-.07.87a6.64,6.64,0,0,1,.72-.68,2.55,2.55,0,0,0-.49-.3l-.15-.07Zm-.18,1.81c0,.22-.06.43-.09.62a2.9,2.9,0,0,1,.34-.36l-.25-.26Zm-.46-2.6c0-.24-.06-.45-.08-.61a6.64,6.64,0,0,0-.89.66,3.07,3.07,0,0,1,1-.05ZM32.15,17.7a6,6,0,0,0,1.36-1.06,1.26,1.26,0,0,0-.5,0,3.92,3.92,0,0,0-.66.15,6.33,6.33,0,0,0-.49.76l.29.19Zm-.43-.27a5.88,5.88,0,0,1,.36-.58,6.45,6.45,0,0,0-.74.36l.38.22ZM34,22.07a3.8,3.8,0,0,1-1,.47,3.48,3.48,0,0,1-.6,1.09A2,2,0,0,0,34,22.07Zm-2.9.67-.34,0A1.73,1.73,0,0,1,31,23c0-.09.08-.18.11-.27Zm-.54-.21a5,5,0,0,0,.59,0,3.68,3.68,0,0,0,.13-.75,3.12,3.12,0,0,0-1.13-2.53,4.28,4.28,0,0,1,.1,1,7.23,7.23,0,0,1,.07,1.16c0,.3,0,.58,0,.84a1.86,1.86,0,0,1,.28.21Zm1.23,0,.54-.06a3.37,3.37,0,0,0,.22-1c-.34.46-.61.88-.76,1.1ZM33,22.35a3.22,3.22,0,0,0,1-.49,1.2,1.2,0,0,0,0-.19,3.46,3.46,0,0,0-.4-1.55c-.17.19-.35.39-.52.6a1.86,1.86,0,0,1,0,.33,3.63,3.63,0,0,1-.12,1.3Zm-2.9-1.15a2.22,2.22,0,0,1-.45.81c.12,0,.27.11.42.19,0-.22,0-.47,0-.72V21.2Zm-.87,0,.06.13a.47.47,0,0,1,.05.1,1.77,1.77,0,0,0,.06-1.17c-.18-.87-.62-.16-.62-.16a2.75,2.75,0,0,1,.45,1.1Zm.41,1.26a4.28,4.28,0,0,1-.05,1.39l.33,0c0-.3.09-.7.12-1.19a2,2,0,0,0-.4-.22Zm-11.29-3.2a2.91,2.91,0,0,1,.55-.48,3.4,3.4,0,0,1,.85-.43l-.37.06,0,0,0,0a4.29,4.29,0,0,0-1,.36L18,19l.35.29Zm-.67,3.11a2.27,2.27,0,0,0-.28,1.24,6,6,0,0,1,.46-1.16,2.86,2.86,0,0,1,.73-.89,1.72,1.72,0,0,0-.91.81Zm-1.91,3.08a2.09,2.09,0,0,0-.36,1.65h0l.16.36A2.06,2.06,0,0,1,16.14,26a5,5,0,0,1-.33-.55Zm.65-7.55a4.62,4.62,0,0,0-.29-.37,4.3,4.3,0,0,0-.89,1.85,3.63,3.63,0,0,1,1.41.21,2.08,2.08,0,0,1,.13-.26,3.69,3.69,0,0,1-.36-1.43Zm9.91-4.31.08-.09-.31-.07.23.16Zm3.9,9.23c0,.42-.07.78-.11,1.05h.36c.1-.14.19-.28.28-.42a2,2,0,0,0-.53-.64Zm-.17,3.29.06-.06h0A3.12,3.12,0,0,0,30,25.3h0l-.31.24a2.12,2.12,0,0,0,0,.34,1.23,1.23,0,0,1,0,.19Zm1.48.41h-.81a2.57,2.57,0,0,1-.14.66l.48.15a2.6,2.6,0,0,0,.47-.82Zm-.94-1.12a2.75,2.75,0,0,0,.23-.49l-.34.18c0,.09.07.2.11.31Zm-.3,2.39-.08.12-.24-.2-.08,0,.2.37a2.75,2.75,0,0,0,.42-.23l-.22,0ZM17.83,29.1l0,0a.8.8,0,0,0,.57.12L18.13,29a2.93,2.93,0,0,1-.31-.51s-.15.45,0,.66Zm3.05,2.14-.47-.11a2.47,2.47,0,0,1-.52.84l.29.11.7-.84Zm-6.19-.71a.1.1,0,0,1,.09-.11.12.12,0,0,1,.11.1s.22,2.52,1.61,1.55A3.91,3.91,0,0,1,15,30.44a.17.17,0,0,1,.08-.22.17.17,0,0,1,.22.08,3.46,3.46,0,0,0,1.46,1.55,6.22,6.22,0,0,0,.52-.57l.05-.07a6,6,0,0,1-.79-.61,5.68,5.68,0,0,1-1.27-1.83,2.18,2.18,0,0,0-1,2.27h0a2.35,2.35,0,0,0,.64,1.4,1.93,1.93,0,0,0,1,.53,1.88,1.88,0,0,0,1-.07,1.44,1.44,0,0,0,.6-.44,3.06,3.06,0,0,1-.77-.28c-1.75,1.46-2-1.64-2-1.65Zm2.88.39.1-.13a10,10,0,0,1-1.84-2.19l-.11-.07-.13.06a5.45,5.45,0,0,0,1.21,1.74,5.1,5.1,0,0,0,.77.59Zm.3-.39.33-.43-.55.22.22.21Zm1-1.36.61-.81a.72.72,0,0,0-.89,0c-.31.31.07.67.28.84Zm-1.08,1.76-.08.09a3.43,3.43,0,0,0,.5.26l-.42-.35Zm3.17.48-.61.73a4.44,4.44,0,0,0,.6.16c0-.3,0-.6,0-.89ZM17.1,19a3.32,3.32,0,0,1,.27-.25,3.92,3.92,0,0,1,.34-2.23l-.27.09A2,2,0,0,0,17.1,19Zm2.18-1.15.38-.07a1.77,1.77,0,0,1,.09-1.13q-.29-.09-.57-.15a1.9,1.9,0,0,0,.1,1.35Zm-2.74,2.06a3.14,3.14,0,0,0-1.32-.17,5,5,0,0,0-.08.78c0,.23,0,.46,0,.68a4.88,4.88,0,0,1,1.4-1.29ZM13,21.65a1.6,1.6,0,0,0,.1.31,1.19,1.19,0,0,0,.18.29.85.85,0,0,0,.45.31h0a.22.22,0,0,0,.14,0,.13.13,0,0,0,.07-.06.41.41,0,0,0,0-.27c0-.22-.4-.42-.76-.53l-.18,0Zm-.19.44a1.56,1.56,0,0,1-.14-.48.58.58,0,0,0-.28.06h0a.13.13,0,0,0-.08.11c0,.29.3.38.54.41a1,1,0,0,0,0-.1ZM22.87,16l.17.22a5,5,0,0,1,1.76-.49l-.25-.29-.16,0a3.74,3.74,0,0,0-1.52.54Zm0,1.15-.11-.26a1.81,1.81,0,0,0-.37.34,3.66,3.66,0,0,1,.48-.08Zm3.05-1.48h.67a4.35,4.35,0,0,0-.79-.19,1.06,1.06,0,0,1,.12.2Zm9,12.74a.45.45,0,0,1-.36.28.55.55,0,0,1-.41-.32l.77,0Zm-20.1-5.9-.06.24.1-.06a1.16,1.16,0,0,1,0-.18Zm-1.2,3.52a3.64,3.64,0,0,1-.13-.72,3.88,3.88,0,0,1,0-.68,1.58,1.58,0,0,0-.06.89,2.16,2.16,0,0,0,.2.51Zm15.42-.83.28-.19a.23.23,0,0,0,0-.11.4.4,0,0,0-.26-.42,1.51,1.51,0,0,1-.08.63c0,.06,0,.09,0,.09ZM19.14,26.7a2.08,2.08,0,0,0,.66-.06s-.08.23-.26.25a.63.63,0,0,1-.4-.19Zm7.78,1.87a.77.77,0,0,0,.84-.25,1.1,1.1,0,0,0,.24-1,1.82,1.82,0,0,1-.51.77,3.44,3.44,0,0,1-.57.45Zm-.1-.75a.58.58,0,0,0,.5-.11.46.46,0,0,0,.1-.53l-.6.64Zm1.2,1a.82.82,0,0,0,.49-.51,1.63,1.63,0,0,0,.11-.6s.32.48.12.78a1.05,1.05,0,0,1-.72.33Zm.35-7s.08.26.23.3a.43.43,0,0,0,.25,0s.07.36-.2.29-.28-.59-.28-.59Zm-.17-.89a3.71,3.71,0,0,1,.55.8,1.12,1.12,0,0,1-.49-.24c-.17-.17-.06-.56-.06-.56Zm.24-1.14-.75-.93s.5-.08.7.16.05.77.05.77Zm-1.28-.11a1.25,1.25,0,0,0-.4-.95.58.58,0,0,0-.89,0,3.27,3.27,0,0,1,.81.42,5.67,5.67,0,0,1,.48.56Zm-8.5,3.7a1.47,1.47,0,0,1,.26-.38s-.26,0-.31.09a.44.44,0,0,0,.05.29ZM17.72,26a1.67,1.67,0,0,0,.47.18,2.48,2.48,0,0,0,.41,0s-.54.31-.76.14-.12-.34-.12-.34ZM19,25.48a1.63,1.63,0,0,0-.1.6.52.52,0,0,0,.26.46A2.89,2.89,0,0,1,19,25.48Zm2.69,2.81a2.75,2.75,0,0,0,.83.41l.23.06H23l.27,0a1.35,1.35,0,0,1-.4.17h-.26a1,1,0,0,1-.29,0,.89.89,0,0,1-.59-.69Zm3.19,1.58a.91.91,0,0,0,.29.29c.17.07-.05.14-.24,0s-.05-.31-.05-.31Zm.3-.4a2,2,0,0,0,1.16,0A1.74,1.74,0,0,0,27,29s-.4,1.16-.86,1.14-.94-.64-.94-.64Z"/></g></g></svg>