<svg xmlns="http://www.w3.org/2000/svg" viewBox="0 0 48 48"><defs><style>.cls-1{fill:none;stroke:#000;stroke-width:4px;}.cls-2{fill-rule:evenodd;}</style></defs><title>instagram</title><g id="Layer_2" data-name="Layer 2"><g id="instagram"><circle class="cls-1" cx="24" cy="24" r="22"/><path class="cls-2" d="M24,15c2.94,0,3.28,0,4.44.07a6.22,6.22,0,0,1,2,.37,3.74,3.74,0,0,1,2.09,2.09,6.22,6.22,0,0,1,.37,2C33,20.72,33,21.06,33,24s0,3.29-.07,4.44a6.22,6.22,0,0,1-.37,2,3.74,3.74,0,0,1-2.09,2.09,6.22,6.22,0,0,1-2,.37C27.29,33,26.94,33,24,33s-3.29,0-4.44-.07a6.22,6.22,0,0,1-2-.37,3.74,3.74,0,0,1-2.09-2.09,6.22,6.22,0,0,1-.37-2C15,27.29,15,26.94,15,24s0-3.28.07-4.44a6.22,6.22,0,0,1,.37-2,3.74,3.74,0,0,1,2.09-2.09,6.22,6.22,0,0,1,2-.37C20.71,15,21.06,15,24,15m0-2c-3,0-3.36,0-4.54.07a8,8,0,0,0-2.67.51,5.67,5.67,0,0,0-3.21,3.21,8,8,0,0,0-.51,2.67C13,20.64,13,21,13,24s0,3.36.07,4.54a8,8,0,0,0,.51,2.67,5.67,5.67,0,0,0,3.21,3.21,8,8,0,0,0,2.67.51C20.64,35,21,35,24,35s3.36,0,4.54-.07a8,8,0,0,0,2.67-.51,5.67,5.67,0,0,0,3.21-3.21,8,8,0,0,0,.51-2.67C35,27.36,35,27,35,24s0-3.36-.07-4.54a8,8,0,0,0-.51-2.67,5.67,5.67,0,0,0-3.21-3.21,8,8,0,0,0-2.67-.51C27.36,13,27,13,24,13Zm0,5.37A5.65,5.65,0,1,0,29.67,24,5.65,5.65,0,0,0,24,18.37Zm0,9.32A3.67,3.67,0,1,1,27.69,24,3.67,3.67,0,0,1,24,27.69Zm7.14-9.58a1.31,1.31,0,1,1-1.31-1.31A1.31,1.31,0,0,1,31.16,18.11Z"/></g></g></svg>