<svg xmlns="http://www.w3.org/2000/svg" viewBox="0 0 48 48"><defs><style>.cls-1,.cls-2{fill:none;}.cls-2{stroke:#000;stroke-width:4px;}.cls-3{fill-rule:evenodd;}</style></defs><title>linkedin</title><g id="Layer_2" data-name="Layer 2"><g id="linkedin"><rect class="cls-1" x="2" y="2" width="44" height="44"/><circle class="cls-2" cx="24" cy="24" r="22"/><path class="cls-3" d="M14.5,20.41h3.9V34H14.5Zm1.85-1.7h0A2.25,2.25,0,0,1,14,16.36,2.27,2.27,0,0,1,16.38,14a2.27,2.27,0,0,1,2.35,2.36,2.27,2.27,0,0,1-2.38,2.35ZM34,34H29.58V27c0-1.84-.69-3.1-2.21-3.1a2.26,2.26,0,0,0-2.11,1.67,3.19,3.19,0,0,0-.1,1.11V34H20.78s.06-12.45,0-13.59h4.38v2.14a4,4,0,0,1,3.89-2.27c2.77,0,4.95,2,4.95,6.16V34Z"/></g></g></svg>