<svg xmlns="http://www.w3.org/2000/svg" viewBox="0 0 48 48"><defs><style>.cls-1,.cls-2{fill:none;}.cls-2{stroke:#000;stroke-width:4px;}.cls-3{fill-rule:evenodd;}</style></defs><title>ok</title><g id="Layer_2" data-name="Layer 2"><g id="ok"><rect class="cls-1" x="2" y="2" width="44" height="44"/><circle class="cls-2" cx="24" cy="24" r="22"/><path class="cls-3" d="M24,15.63a2.57,2.57,0,1,1-2.58,2.56A2.58,2.58,0,0,1,24,15.63Zm0,8.76a6.2,6.2,0,1,0-6.23-6.2A6.23,6.23,0,0,0,24,24.39Zm2.54,5.05A12,12,0,0,0,30.15,28a1.8,1.8,0,0,0,.57-2.5,1.83,1.83,0,0,0-2.52-.57,8,8,0,0,1-8.4,0,1.83,1.83,0,0,0-2.52.57,1.8,1.8,0,0,0,.57,2.5,12,12,0,0,0,3.63,1.49L18,32.9a1.82,1.82,0,0,0,0,2.57,1.83,1.83,0,0,0,2.58,0L24,32.07l3.43,3.4a1.83,1.83,0,0,0,2.58,0,1.8,1.8,0,0,0,0-2.57Z"/></g></g></svg>