<svg xmlns="http://www.w3.org/2000/svg" viewBox="0 0 48 48"><defs><style>.cls-1,.cls-2{fill:none;}.cls-2{stroke:#000;stroke-width:4px;}.cls-3{fill-rule:evenodd;}</style></defs><title>other</title><g id="Layer_2" data-name="Layer 2"><g id="other"><rect class="cls-1" x="2" y="2" width="44" height="44"/><circle class="cls-2" cx="24" cy="24" r="22"/><path class="cls-3" d="M24,13A11,11,0,1,0,35,24,11,11,0,0,0,24,13Zm0,20.63a9.52,9.52,0,0,1-3.81-.79l5-5.63a.72.72,0,0,0,.18-.46V24.69a.69.69,0,0,0-.69-.69c-2.43,0-5-2.52-5-2.55a.66.66,0,0,0-.48-.2H16.44a.69.69,0,0,0-.69.69v4.12a.71.71,0,0,0,.38.62l2.37,1.18v4a9.65,9.65,0,0,1-3.2-12h2.51a.69.69,0,0,0,.49-.21l2.75-2.75a.66.66,0,0,0,.2-.48V14.77A9.93,9.93,0,0,1,24,14.38a9.51,9.51,0,0,1,4.22,1l-.26.23a4.12,4.12,0,0,0,2.91,7h.21a16.27,16.27,0,0,1-.18,8,.43.43,0,0,0,0,.11A9.57,9.57,0,0,1,24,33.62Z"/></g></g></svg>