<svg xmlns="http://www.w3.org/2000/svg" viewBox="0 0 48 48"><defs><style>.cls-1,.cls-2{fill:none;}.cls-2{stroke:#000;stroke-width:4px;}.cls-3{fill-rule:evenodd;}</style></defs><title>pinterest</title><g id="Layer_2" data-name="Layer 2"><g id="pinterest"><rect class="cls-1" x="2" y="2" width="44" height="44"/><circle class="cls-2" cx="24" cy="24" r="22"/><path class="cls-3" d="M12,24a12,12,0,0,0,7.19,11,10.41,10.41,0,0,1,.2-2.75l1.55-6.54a4.57,4.57,0,0,1-.39-1.9c0-1.78,1-3.11,2.32-3.11a1.61,1.61,0,0,1,1.62,1.8,25.77,25.77,0,0,1-1.06,4.26,1.85,1.85,0,0,0,1.89,2.31c2.27,0,3.81-2.92,3.81-6.38,0-2.63-1.78-4.6-5-4.6a5.69,5.69,0,0,0-5.91,5.75A3.46,3.46,0,0,0,19,26.18c.23.27.26.37.18.67s-.19.76-.25,1a.41.41,0,0,1-.6.3c-1.67-.69-2.45-2.52-2.45-4.59,0-3.41,2.87-7.49,8.57-7.49,4.58,0,7.6,3.31,7.6,6.87,0,4.71-2.62,8.22-6.48,8.22a3.46,3.46,0,0,1-2.93-1.49s-.69,2.76-.84,3.3a10.15,10.15,0,0,1-1.21,2.57A12,12,0,1,0,12,24Z"/></g></g></svg>