<svg xmlns="http://www.w3.org/2000/svg" viewBox="0 0 48 48"><defs><style>.cls-1,.cls-2{fill:none;}.cls-2{stroke:#000;stroke-width:4px;}.cls-3{fill-rule:evenodd;}</style></defs><title>reddit</title><g id="Layer_2" data-name="Layer 2"><g id="reddit"><rect class="cls-1" x="2" y="2" width="44" height="44"/><circle class="cls-2" cx="24" cy="24" r="22"/><path class="cls-3" d="M27.87,27.43a1.78,1.78,0,0,1-1.79-1.75,1.8,1.8,0,0,1,1.79-1.77,1.78,1.78,0,0,1,1.76,1.77,1.75,1.75,0,0,1-1.76,1.75m.41,3.38A5.8,5.8,0,0,1,24,32.14h0a5.8,5.8,0,0,1-4.27-1.33.69.69,0,0,1,0-1,.7.7,0,0,1,1,0,4.55,4.55,0,0,0,3.27.92h0a4.57,4.57,0,0,0,3.27-.92.7.7,0,0,1,1,0,.69.69,0,0,1,0,1m-9.91-5.13a1.8,1.8,0,0,1,1.79-1.77,1.78,1.78,0,0,1,1.76,1.77,1.75,1.75,0,0,1-1.76,1.75,1.78,1.78,0,0,1-1.79-1.75m14.3-11.11a1.19,1.19,0,1,1-1.2,1.18,1.19,1.19,0,0,1,1.2-1.18M37,23.77a3.12,3.12,0,0,0-5.09-2.4A14.8,14.8,0,0,0,25,19.31l1.35-4.23,3.72.86a2.61,2.61,0,1,0,.29-1.38l-4.32-1a.71.71,0,0,0-.84.47l-1.68,5.26a14.94,14.94,0,0,0-7.46,2,3.17,3.17,0,0,0-1.93-.66A3.11,3.11,0,0,0,11,23.77a3.06,3.06,0,0,0,1.35,2.54,6.3,6.3,0,0,0,0,.75c0,2.13,1.25,4.12,3.52,5.59A15.13,15.13,0,0,0,24,34.83a15.09,15.09,0,0,0,8.12-2.18c2.27-1.47,3.53-3.46,3.53-5.59a5.06,5.06,0,0,0-.05-.68A3.1,3.1,0,0,0,37,23.77"/></g></g></svg>