<svg xmlns="http://www.w3.org/2000/svg" viewBox="0 0 48 48"><defs><style>.cls-1,.cls-2{fill:none;}.cls-2{stroke:#000;stroke-width:4px;}.cls-3{fill-rule:evenodd;}</style></defs><title>skype</title><g id="Layer_2" data-name="Layer 2"><g id="skype"><rect class="cls-1" x="2" y="2" width="44" height="44"/><circle class="cls-2" cx="24" cy="24" r="22"/><path class="cls-3" d="M35.31,26.55A11.3,11.3,0,0,0,24.13,12.84a12.64,12.64,0,0,0-2,.16,6.7,6.7,0,0,0-3.53-1A6.59,6.59,0,0,0,12,18.55a6.48,6.48,0,0,0,.91,3.31A11.28,11.28,0,0,0,24.13,35.41a11.05,11.05,0,0,0,2.09-.19,6.67,6.67,0,0,0,3.14.78A6.59,6.59,0,0,0,36,29.45a6.42,6.42,0,0,0-.69-2.9Zm-5.4,2.94a5.22,5.22,0,0,1-2.33,1.74,9.42,9.42,0,0,1-3.57.62,8.84,8.84,0,0,1-4.1-.85A5.38,5.38,0,0,1,18,29.35a3.61,3.61,0,0,1-.73-2,1.39,1.39,0,0,1,.48-1.06A1.64,1.64,0,0,1,19,25.81a1.51,1.51,0,0,1,1,.34,2.6,2.6,0,0,1,.67,1,5.54,5.54,0,0,0,.66,1.15,2.52,2.52,0,0,0,1,.73,3.86,3.86,0,0,0,1.66.29,4.12,4.12,0,0,0,2.31-.59,1.64,1.64,0,0,0,.84-1.41,1.38,1.38,0,0,0-.44-1.07,3.16,3.16,0,0,0-1.22-.66c-.52-.16-1.23-.33-2.1-.52a16.53,16.53,0,0,1-3-.88,4.94,4.94,0,0,1-2-1.42,3.51,3.51,0,0,1-.74-2.26,3.66,3.66,0,0,1,.78-2.28,4.81,4.81,0,0,1,2.22-1.52A9.75,9.75,0,0,1,24,16.15a9.2,9.2,0,0,1,2.67.35,5.75,5.75,0,0,1,1.89.93,4.1,4.1,0,0,1,1.12,1.23A2.78,2.78,0,0,1,30,20,1.5,1.5,0,0,1,29.52,21a1.56,1.56,0,0,1-1.17.48,1.48,1.48,0,0,1-1-.3,3.92,3.92,0,0,1-.68-.9,3.7,3.7,0,0,0-1-1.25,3.22,3.22,0,0,0-1.91-.43,3.6,3.6,0,0,0-2,.48,1.28,1.28,0,0,0-.71,1.08,1,1,0,0,0,.23.66,2.2,2.2,0,0,0,.68.51,4.69,4.69,0,0,0,.92.35c.32.09.85.22,1.58.38.93.2,1.78.42,2.54.66a7.84,7.84,0,0,1,1.95.88A3.76,3.76,0,0,1,30.24,25a4,4,0,0,1,.47,2,4.25,4.25,0,0,1-.8,2.52Z"/></g></g></svg>