<svg xmlns="http://www.w3.org/2000/svg" viewBox="0 0 48 48"><defs><style>.cls-1,.cls-2{fill:none;}.cls-2{stroke:#000;stroke-width:4px;}.cls-3{fill-rule:evenodd;}</style></defs><title>snapchat</title><g id="Layer_2" data-name="Layer 2"><g id="snapchat"><rect class="cls-1" x="2" y="2" width="44" height="44"/><circle class="cls-2" cx="24" cy="24" r="22"/><path class="cls-3" d="M23.78,14a6.44,6.44,0,0,0-2.52.53,5.68,5.68,0,0,0-1.6,1.07,5.91,5.91,0,0,0-1.34,1.92A10.83,10.83,0,0,0,18,22l0,.49a.94.94,0,0,1-.36.06,2.28,2.28,0,0,1-1-.26.92.92,0,0,0-.38-.08,1.35,1.35,0,0,0-.66.19.91.91,0,0,0-.46.59.83.83,0,0,0,.31.78,2.81,2.81,0,0,0,.82.46l.32.11c.41.13,1,.33,1.19.7a.92.92,0,0,1-.11.75,7,7,0,0,1-1.11,1.74,6.14,6.14,0,0,1-1.34,1.18,4.88,4.88,0,0,1-1.88.73.51.51,0,0,0-.43.54.87.87,0,0,0,.05.22,1.36,1.36,0,0,0,.75.64,8.81,8.81,0,0,0,2.15.56,2.24,2.24,0,0,1,.13.47c0,.17.08.34.13.52a.57.57,0,0,0,.59.43,2.59,2.59,0,0,0,.5-.07,5.56,5.56,0,0,1,1.16-.13,4.62,4.62,0,0,1,.82.07,3.94,3.94,0,0,1,1.55.79,4.93,4.93,0,0,0,3,1.19h.28a4.93,4.93,0,0,0,3-1.19,3.94,3.94,0,0,1,1.55-.79,4.62,4.62,0,0,1,.82-.07,6.18,6.18,0,0,1,1.16.12,2.76,2.76,0,0,0,.5.06.56.56,0,0,0,.59-.42c.05-.18.09-.34.13-.51a2.24,2.24,0,0,1,.13-.47,8.81,8.81,0,0,0,2.15-.56,1.34,1.34,0,0,0,.74-.64.46.46,0,0,0,.06-.22.51.51,0,0,0-.43-.54c-2.94-.48-4.27-3.5-4.32-3.62a1,1,0,0,1-.12-.78c.16-.37.78-.57,1.19-.7l.32-.11a2.46,2.46,0,0,0,.88-.52.8.8,0,0,0,.26-.6.93.93,0,0,0-.7-.82,1.28,1.28,0,0,0-.48-.09,1.16,1.16,0,0,0-.45.09,2.44,2.44,0,0,1-.91.26.89.89,0,0,1-.31-.07q0-.2,0-.42V22a10.88,10.88,0,0,0-.28-4.45,6.07,6.07,0,0,0-1.34-1.92,5.62,5.62,0,0,0-1.61-1.06A6.44,6.44,0,0,0,24.21,14Z"/></g></g></svg>