<svg xmlns="http://www.w3.org/2000/svg" viewBox="0 0 48 48"><defs><style>.cls-1,.cls-2{fill:none;}.cls-2{stroke:#000;stroke-width:4px;}.cls-3{fill-rule:evenodd;}</style></defs><title>telegram</title><g id="Layer_2" data-name="Layer 2"><g id="telegram"><rect class="cls-1" x="2" y="2" width="44" height="44"/><circle class="cls-2" cx="24" cy="24" r="22"/><path class="cls-3" d="M33,13.92,29.85,32.78a.8.8,0,0,1-.4.55.7.7,0,0,1-.38.1.79.79,0,0,1-.29-.06L23.22,31.1l-3,3.62a.73.73,0,0,1-.61.28.76.76,0,0,1-.27,0,.76.76,0,0,1-.37-.29.77.77,0,0,1-.14-.45V29.93l10.61-13L16.34,28.28l-4.85-2a.74.74,0,0,1-.49-.68.72.72,0,0,1,.39-.72L31.82,13.11a.83.83,0,0,1,.4-.11.77.77,0,0,1,.44.14A.75.75,0,0,1,33,13.92Z"/></g></g></svg>