<svg xmlns="http://www.w3.org/2000/svg" viewBox="0 0 48 48"><defs><style>.cls-1,.cls-2{fill:none;}.cls-2{stroke:#000;stroke-width:4px;}.cls-3{fill-rule:evenodd;}</style></defs><title>tumblr</title><g id="Layer_2" data-name="Layer 2"><g id="tumblr"><rect class="cls-1" x="2" y="2" width="44" height="44"/><circle class="cls-2" cx="24" cy="24" r="22"/><path class="cls-3" d="M24.48,13v5.25h5.14v3.27H24.48v5.33a8.27,8.27,0,0,0,.2,2.32,1.62,1.62,0,0,0,.74.82,3.31,3.31,0,0,0,1.65.41,6.06,6.06,0,0,0,3.27-1v3.28a13.41,13.41,0,0,1-2.52.88,11,11,0,0,1-2.43.26,8.69,8.69,0,0,1-2.62-.36,5.84,5.84,0,0,1-1.95-1A3.72,3.72,0,0,1,19.7,31a6,6,0,0,1-.31-2.17V21.52H17V18.57a6.33,6.33,0,0,0,2.19-1.14,5.86,5.86,0,0,0,1.46-1.78A8,8,0,0,0,21.4,13h3.08"/></g></g></svg>