<svg xmlns="http://www.w3.org/2000/svg" xmlns:xlink="http://www.w3.org/1999/xlink" viewBox="0 0 48 48"><defs><style>.cls-1{fill:#fff;}.cls-2,.cls-5{fill:none;}.cls-2{stroke:#000;stroke-width:4px;}.cls-3{fill-rule:evenodd;}.cls-4{mask:url(#mask);}</style><mask id="mask" x="-98" y="-38" width="146" height="86" maskUnits="userSpaceOnUse"><g id="mask-4"><circle id="path-3" class="cls-1" cx="-76" cy="-16" r="22"/></g></mask></defs><title>twitter</title><g id="Layer_2" data-name="Layer 2"><g id="twitter"><circle class="cls-2" cx="24" cy="24" r="22"/><path class="cls-3" d="M32.53,18.85a4.55,4.55,0,0,0,1.89-2.52,8.45,8.45,0,0,1-2.74,1.11A4.16,4.16,0,0,0,28.54,16a4.43,4.43,0,0,0-4.31,4.54,5,5,0,0,0,.11,1,12,12,0,0,1-8.88-4.75,4.72,4.72,0,0,0-.58,2.29A4.62,4.62,0,0,0,16.8,22.9a4.11,4.11,0,0,1-2-.57v.06a4.49,4.49,0,0,0,3.46,4.45,3.88,3.88,0,0,1-1.14.16,4.45,4.45,0,0,1-.81-.08,4.35,4.35,0,0,0,4,3.16A8.36,8.36,0,0,1,15,32,8.77,8.77,0,0,1,14,32a11.73,11.73,0,0,0,6.6,2c7.93,0,12.26-6.92,12.26-12.93,0-.2,0-.39,0-.59A9.11,9.11,0,0,0,35,18.13,8.28,8.28,0,0,1,32.53,18.85Z"/><g class="cls-4"><g id="twitter-2" data-name="twitter"><rect class="cls-5" x="2" y="2" width="44" height="44"/><circle class="cls-2" cx="24" cy="24" r="22"/><path class="cls-3" d="M32.53,18.85a4.55,4.55,0,0,0,1.89-2.52,8.45,8.45,0,0,1-2.74,1.11A4.16,4.16,0,0,0,28.54,16a4.43,4.43,0,0,0-4.31,4.54,5,5,0,0,0,.11,1,12,12,0,0,1-8.88-4.75,4.72,4.72,0,0,0-.58,2.29A4.62,4.62,0,0,0,16.8,22.9a4.11,4.11,0,0,1-2-.57v.06a4.49,4.49,0,0,0,3.46,4.45,3.88,3.88,0,0,1-1.14.16,4.45,4.45,0,0,1-.81-.08,4.35,4.35,0,0,0,4,3.16A8.36,8.36,0,0,1,15,32,8.77,8.77,0,0,1,14,32a11.73,11.73,0,0,0,6.6,2c7.93,0,12.26-6.92,12.26-12.93,0-.2,0-.39,0-.59A9.11,9.11,0,0,0,35,18.13,8.28,8.28,0,0,1,32.53,18.85Z"/></g></g></g></g></svg>