<svg xmlns="http://www.w3.org/2000/svg" viewBox="0 0 48 48"><defs><style>.cls-1,.cls-2{fill:none;}.cls-2{stroke:#000;stroke-width:4px;}.cls-3{fill-rule:evenodd;}</style></defs><title>vk</title><g id="Layer_2" data-name="Layer 2"><g id="vk"><rect class="cls-1" x="2" y="2" width="44" height="44"/><circle class="cls-2" cx="24" cy="24" r="22"/><path class="cls-3" d="M24.73,31.93a1.29,1.29,0,0,0,.68-.29,1.06,1.06,0,0,0,.2-.65s0-2,.9-2.25,2.1,1.9,3.35,2.74a2.39,2.39,0,0,0,1.66.5l3.34-.05s1.75-.1.92-1.45a11.23,11.23,0,0,0-2.48-2.82c-2.1-1.91-1.82-1.6.7-4.9,1.54-2,2.15-3.24,2-3.76s-1.31-.37-1.31-.37l-3.76,0a.93.93,0,0,0-.49.09,1.05,1.05,0,0,0-.33.39A20.25,20.25,0,0,1,28.68,22C27,24.8,26.34,25,26.07,24.78c-.64-.41-.48-1.63-.48-2.49,0-2.71.42-3.83-.81-4.13A6.89,6.89,0,0,0,23,18a8.31,8.31,0,0,0-3.12.32c-.43.2-.76.66-.55.69a1.69,1.69,0,0,1,1.1.54,3.5,3.5,0,0,1,.38,1.67s.22,3.19-.52,3.58c-.51.27-1.2-.28-2.69-2.81a23.42,23.42,0,0,1-1.35-2.73,1.06,1.06,0,0,0-.31-.41,1.45,1.45,0,0,0-.57-.23l-3.57,0a1.31,1.31,0,0,0-.74.24c-.17.21,0,.63,0,.63s2.79,6.42,6,9.66a8.65,8.65,0,0,0,6.2,2.77Z"/></g></g></svg>