<svg xmlns="http://www.w3.org/2000/svg" viewBox="0 0 48 48"><defs><style>.cls-1,.cls-2{fill:none;}.cls-2{stroke:#000;stroke-width:4px;}.cls-3{fill-rule:evenodd;}</style></defs><title>youtube</title><g id="Layer_2" data-name="Layer 2"><g id="youtube"><rect class="cls-1" x="2" y="2" width="44" height="44"/><circle class="cls-2" cx="24" cy="24" r="22"/><path class="cls-3" d="M17.93,30V26h1.52V24.7H15.07V26h1.48v4c0,2.21,0,4,0,4.06s.16,0,.67,0h.66Zm12.6-.29a6.56,6.56,0,0,1,0-1.15.6.6,0,0,1,.62-.48.55.55,0,0,1,.55.34c.07.15.08.21.09.75v.59H31.2c-.56,0-.65,0-.67-.05Zm1.22,4.37A1.73,1.73,0,0,0,33,32.86a5.77,5.77,0,0,0,.07-.67l0-.47H31.85v.42c0,.49-.07.65-.24.81a.68.68,0,0,1-.76,0c-.26-.18-.33-.48-.31-1.47v-.7h2.54v-1A3.55,3.55,0,0,0,32.83,28a1.84,1.84,0,0,0-2.25-.86,1.71,1.71,0,0,0-1.18,1.31,12.45,12.45,0,0,0-.06,2.14c0,2.09,0,2.17.22,2.6a1.91,1.91,0,0,0,2.19.92ZM26.7,32.91a.44.44,0,0,0,.17-.24,10.46,10.46,0,0,0,.05-2.14,8.29,8.29,0,0,0-.07-2.09c-.16-.31-.54-.34-.9-.07l-.12.09v4.25l.12.09a.66.66,0,0,0,.75.11Zm.77,1.2a1,1,0,0,0,.54-.52c.2-.46.2-.47.2-3A16.47,16.47,0,0,0,28.15,28c-.17-.73-.53-1-1.14-1a1.44,1.44,0,0,0-.94.47,1.67,1.67,0,0,1-.28.25s0-.69,0-1.53V24.68h-1.2v9.41h1.2v-.32c0-.21,0-.32,0-.32a1.46,1.46,0,0,1,.3.25,1.29,1.29,0,0,0,1.37.41Zm-6.36,0a2.31,2.31,0,0,0,.75-.53,1.08,1.08,0,0,1,.24-.2s0,.09,0,.37v.37h1.19v-7H22.15v5.37l-.26.26a1,1,0,0,1-.42.3c-.21.06-.35,0-.44-.13S21,32.75,21,30V27.12h-1.2v3c0,3.29,0,3.36.19,3.68a.91.91,0,0,0,1.17.27Zm.5,2.91-2-.05c-2.33-.09-3.93-.18-4.25-.24a2.28,2.28,0,0,1-1.26-.77,4.22,4.22,0,0,1-.85-2.38,35.62,35.62,0,0,1,0-7.93,3.88,3.88,0,0,1,1-2.39,2,2,0,0,1,1-.58,107.16,107.16,0,0,1,11.63-.3c2.35,0,4.89.16,5.57.23A2.31,2.31,0,0,1,34.33,24a6.66,6.66,0,0,1,.56,2.72,31.17,31.17,0,0,1,.1,3.43,26.59,26.59,0,0,1-.29,4.05,3.42,3.42,0,0,1-1.1,2.07,2.43,2.43,0,0,1-1.5.5l-.57,0c-.39,0-2.48.12-3.62.15C26.21,37,23.23,37,21.61,37ZM19.51,21.5c0-.05,0-2.79,0-3.18a4.34,4.34,0,0,0-.4-1.89c-.12-.32-.33-.95-.47-1.4-1-3.21-.95-3-.85-3h1.49s.22.79.48,1.75.47,1.74.47,1.76.16-.54.34-1.23L21.17,12A4.64,4.64,0,0,1,22,12h.68l0,.1c0,.09-.47,1.65-1,3.23-.05.17-.18.62-.3,1s-.24.82-.3,1l-.09.31v1.93c0,1.81,0,1.93-.06,1.95A9.56,9.56,0,0,1,19.51,21.5Zm8.75.12a.8.8,0,0,1-.67-.44c-.16-.34-.16-.33-.16-3.66v-3.1h1.34l0,2.86c0,3.1,0,3,.19,3.08s.36-.05.6-.29l.22-.23V14.42h1.34V21.5l-.09,0c-.11,0-1.13,0-1.21,0s-.06-.06-.06-.34v-.32l-.19.19a1.66,1.66,0,0,1-1.35.57Zm-3.4-1.36c.24-.17.24-.19.25-2.18a13.51,13.51,0,0,0,0-2c-.07-.29-.18-.42-.39-.48a.52.52,0,0,0-.63.39,37.93,37.93,0,0,0,0,4,.5.5,0,0,0,.82.31Zm-.52,1.36a1.92,1.92,0,0,1-1.43-.92c-.27-.49-.29-.75-.28-2.93a8.88,8.88,0,0,1,.09-2,1.78,1.78,0,0,1,.94-1.2,1.93,1.93,0,0,1,2,.12,1.77,1.77,0,0,1,.76,1.17A11.22,11.22,0,0,1,26.46,18c0,2.07,0,2.19-.22,2.64a1.85,1.85,0,0,1-1.14.94,2.56,2.56,0,0,1-.76.08Z"/></g></g></svg>